<svg xmlns="http://www.w3.org/2000/svg" aria-hidden="true" style="position:absolute;width:0;height:0;overflow:hidden">
  <defs>
    <symbol id="icon-fullyIntegrated" viewBox="0 0 32 32">
      <path d="M2 5a3.004 3.004 0 0 1 3-3h6a3.004 3.004 0 0 1 3 3v6a3.004 3.004 0 0 1-3 3H5a3.004 3.004 0 0 1-3-3V5zm3-1a.997.997 0 0 0-1 1v6a.997.997 0 0 0 1 1h6a.997.997 0 0 0 1-1V5a.997.997 0 0 0-1-1H5zm13 1a3.004 3.004 0 0 1 3-3h6a3.004 3.004 0 0 1 3 3v6a3.004 3.004 0 0 1-3 3h-6a3.004 3.004 0 0 1-3-3V5zm3-1a.997.997 0 0 0-1 1v6a.997.997 0 0 0 1 1h6a.997.997 0 0 0 1-1V5a.997.997 0 0 0-1-1h-6zM2 21a3.004 3.004 0 0 1 3-3h6a3.004 3.004 0 0 1 3 3v6a3.004 3.004 0 0 1-3 3H5a3.004 3.004 0 0 1-3-3v-6zm3-1a.997.997 0 0 0-1 1v6a.997.997 0 0 0 1 1h6a.997.997 0 0 0 1-1v-6a.997.997 0 0 0-1-1H5zm13 1a3.004 3.004 0 0 1 3-3h6a3.004 3.004 0 0 1 3 3v6a3.004 3.004 0 0 1-3 3h-6a3.004 3.004 0 0 1-3-3v-6zm3-1a.997.997 0 0 0-1 1v6a.997.997 0 0 0 1 1h6a.997.997 0 0 0 1-1v-6a.997.997 0 0 0-1-1h-6z"/>
    </symbol>
    <symbol id="icon-panelTruck" viewBox="0 0 32 32">
      <path d="M12 2H2v28h10V2zm18 0H20v10h10V2zm0 18v10H20V20h10zM0 2a2 2 0 0 1 2-2h10a2 2 0 0 1 2 2v28a2 2 0 0 1-2 2H2a2 2 0 0 1-2-2V2zm18 0a2 2 0 0 1 2-2h10a2 2 0 0 1 2 2v10a2 2 0 0 1-2 2H20a2 2 0 0 1-2-2V2zm2 16a2 2 0 0 0-2 2v10a2 2 0 0 0 2 2h10a2 2 0 0 0 2-2V20a2 2 0 0 0-2-2H20z"/>
    </symbol>
    <symbol id="icon-alcove" viewBox="0 0 32 32">
      <path d="M8 4v4H4V4h4zm2 24v-4a2 2 0 0 0-2-2H4a2 2 0 0 0-2 2v4a2 2 0 0 0 2 2h4a2 2 0 0 0 2-2zm0-10v-4a2 2 0 0 0-2-2H4a2 2 0 0 0-2 2v4a2 2 0 0 0 2 2h4a2 2 0 0 0 2-2zm0-10V4a2 2 0 0 0-2-2H4a2 2 0 0 0-2 2v4a2 2 0 0 0 2 2h4a2 2 0 0 0 2-2zm10 20v-4a2 2 0 0 0-2-2h-4a2 2 0 0 0-2 2v4a2 2 0 0 0 2 2h4a2 2 0 0 0 2-2zm0-10v-4a2 2 0 0 0-2-2h-4a2 2 0 0 0-2 2v4a2 2 0 0 0 2 2h4a2 2 0 0 0 2-2zm0-10V4a2 2 0 0 0-2-2h-4a2 2 0 0 0-2 2v4a2 2 0 0 0 2 2h4a2 2 0 0 0 2-2zm-2-4v4h-4V4h4zm10 0v4h-4V4h4zM8 14v4H4v-4h4zm10 0v4h-4v-4h4zm10 0h-4v4h4v-4zM8 24v4H4v-4h4zm10 0v4h-4v-4h4zm10 0v4h-4v-4h4zM24 2a2 2 0 0 0-2 2v4a2 2 0 0 0 2 2h4a2 2 0 0 0 2-2V4a2 2 0 0 0-2-2h-4zm-2 12a2 2 0 0 1 2-2h4a2 2 0 0 1 2 2v4a2 2 0 0 1-2 2h-4a2 2 0 0 1-2-2v-4zm2 8a2 2 0 0 0-2 2v4a2 2 0 0 0 2 2h4a2 2 0 0 0 2-2v-4a2 2 0 0 0-2-2h-4z"/>
    </symbol>
    <symbol id="icon-kitchen" viewBox="0 0 32 32">
      <path d="M1 12a1.007 1.007 0 0 0-.779.374.997.997 0 0 0-.197.842l3.304 14.868A4.998 4.998 0 0 0 8.208 32h11.584a4.996 4.996 0 0 0 4.88-3.916l.262-1.18a6 6 0 0 0 2.601-11.708l.442-1.98A1.003 1.003 0 0 0 27.001 12h-26zm25 13a4.05 4.05 0 0 1-.632-.05l1.734-7.796A4.002 4.002 0 0 1 26 25zM5.28 27.65 2.246 14h23.508L22.72 27.65A2.995 2.995 0 0 1 19.792 30H8.208a2.998 2.998 0 0 1-2.928-2.35zM8.8 1.6l-.006.008-.028.038c-.146.2-.282.407-.408.62a4.003 4.003 0 0 0-.282.534c-.052.12-.068.184-.074.206v.008c.023.177.085.346.182.496.15.266.356.544.616.89l.02.024c.236.316.52.694.74 1.086.224.4.44.91.44 1.49 0 .376-.13.736-.238.988a6.142 6.142 0 0 1-.404.776 10.2 10.2 0 0 1-.506.764l-.036.05-.01.016-.004.004a1.004 1.004 0 0 1-1.4.202A1 1 0 0 1 7.2 8.4l.006-.008.028-.038c.146-.2.282-.407.408-.62.107-.171.202-.349.282-.534.052-.12.068-.184.074-.206a1.199 1.199 0 0 0-.18-.504A8.024 8.024 0 0 0 7.2 5.6l-.02-.024c-.27-.345-.517-.708-.74-1.086A3.066 3.066 0 0 1 6 3c0-.376.13-.736.238-.988.118-.276.268-.548.404-.776.159-.261.328-.516.506-.764l.05-.07A1.004 1.004 0 0 1 8.598.2 1.004 1.004 0 0 1 8.8 1.6zm6 0-.006.008-.028.038c-.146.2-.282.407-.408.62a4.003 4.003 0 0 0-.282.534c-.052.12-.068.184-.074.206v.008c.023.177.085.346.182.496.15.266.356.544.616.89l.02.024c.236.316.52.694.74 1.086.224.4.44.91.44 1.49 0 .376-.13.736-.238.988a6.142 6.142 0 0 1-.404.776 10.2 10.2 0 0 1-.506.764l-.036.05-.01.016-.004.004a1.004 1.004 0 0 1-1.4.202 1 1 0 0 1-.202-1.4l.006-.008.028-.038c.146-.2.282-.407.408-.62.107-.171.202-.349.282-.534.052-.12.068-.184.074-.206a1.199 1.199 0 0 0-.18-.504 8.024 8.024 0 0 0-.618-.89l-.02-.024c-.27-.345-.517-.708-.74-1.086A3.066 3.066 0 0 1 12 3c0-.376.13-.736.238-.988.118-.276.268-.548.404-.776.159-.261.328-.516.506-.764l.05-.07a1.004 1.004 0 0 1 1.4-.202 1 1 0 0 1 .202 1.4zm6 0-.006.008-.028.038c-.145.2-.282.407-.408.62a4.003 4.003 0 0 0-.282.534c-.052.12-.068.184-.074.206v.008c.023.177.085.346.182.496.15.266.356.544.616.89l.02.024c.236.316.52.694.74 1.086.224.4.44.91.44 1.49 0 .376-.13.736-.238.988a6.142 6.142 0 0 1-.404.776 9.875 9.875 0 0 1-.504.764l-.038.05-.01.016-.004.004a1.004 1.004 0 0 1-1.4.202 1 1 0 0 1-.202-1.4l.006-.008.028-.038c.145-.2.282-.407.408-.62.107-.171.202-.349.282-.534.052-.12.068-.184.074-.206a1.199 1.199 0 0 0-.18-.504 8.024 8.024 0 0 0-.618-.89l-.02-.024c-.27-.345-.517-.708-.74-1.086A3.066 3.066 0 0 1 18 3c0-.376.13-.736.238-.988.118-.276.268-.548.404-.776.159-.261.328-.516.506-.764l.05-.07a1.004 1.004 0 0 1 1.4-.202 1 1 0 0 1 .202 1.4z"/>
    </symbol>
    <symbol id="icon-transmission" viewBox="0 0 32 32">
      <path d="M12 7a3.004 3.004 0 0 1 3-3h2a3.004 3.004 0 0 1 3 3v2a3.004 3.004 0 0 1-3 3v2h11a.997.997 0 0 1 1 1v2a.997.997 0 0 1-1 1 .997.997 0 0 1-1-1v-1H17v1a.997.997 0 0 1-1 1 .997.997 0 0 1-1-1v-1H5v1a.997.997 0 0 1-1 1 .997.997 0 0 1-1-1v-2a.997.997 0 0 1 1-1h11v-2a3.004 3.004 0 0 1-3-3V7zm5 3a.997.997 0 0 0 1-1V7a.997.997 0 0 0-1-1h-2a.997.997 0 0 0-1 1v2a.997.997 0 0 0 1 1h2zM0 23a3.004 3.004 0 0 1 3-3h2a3.004 3.004 0 0 1 3 3v2a3.004 3.004 0 0 1-3 3H3a3.004 3.004 0 0 1-3-3v-2zm3-1a.997.997 0 0 0-1 1v2a.997.997 0 0 0 1 1h2a.997.997 0 0 0 1-1v-2a.997.997 0 0 0-1-1H3zm9 1a3.004 3.004 0 0 1 3-3h2a3.004 3.004 0 0 1 3 3v2a3.004 3.004 0 0 1-3 3h-2a3.004 3.004 0 0 1-3-3v-2zm3-1a.997.997 0 0 0-1 1v2a.997.997 0 0 0 1 1h2a.997.997 0 0 0 1-1v-2a.997.997 0 0 0-1-1h-2zm9 1a3.004 3.004 0 0 1 3-3h2a3.004 3.004 0 0 1 3 3v2a3.004 3.004 0 0 1-3 3h-2a3.004 3.004 0 0 1-3-3v-2zm3-1a.997.997 0 0 0-1 1v2a.997.997 0 0 0 1 1h2a.997.997 0 0 0 1-1v-2a.997.997 0 0 0-1-1h-2z"/>
    </symbol>
    <symbol id="icon-engine" viewBox="0 0 32 32">
      <path d="M6 5a.997.997 0 0 1 1-1h10a.997.997 0 0 1 1 1v10a.997.997 0 0 1-1 1H7a.997.997 0 0 1-1-1V5z"/>
      <path d="M2 4a4.003 4.003 0 0 1 4-4h12a4.003 4.003 0 0 1 4 4v16a4.003 4.003 0 0 1 4 4v1a.997.997 0 0 0 1 1 .997.997 0 0 0 1-1v-9h-1a.997.997 0 0 1-1-1V8.75a.997.997 0 0 1 1-1h2.99c-.022-.952-.106-1.788-.402-2.444a1.944 1.944 0 0 0-.788-.916C28.432 4.17 27.872 4 27 4a.997.997 0 0 1-1-1 .997.997 0 0 1 1-1c1.128-.003 2.069.221 2.824.672.766.456 1.268 1.102 1.588 1.814.59 1.31.588 2.93.588 4.162v6.35c0 .132-.025.262-.076.383s-.124.232-.217.325a.991.991 0 0 1-.708.293h-1v9a3.004 3.004 0 0 1-3 3 2.998 2.998 0 0 1-3-3v-1a2 2 0 0 0-2-2v8h1a.997.997 0 0 1 1 1 .997.997 0 0 1-1 1h-22a.997.997 0 0 1-1-1 .997.997 0 0 1 1-1h1v-26zm18 0a2 2 0 0 0-2-2H6a2 2 0 0 0-2 2v26h16V4z"/>
    </symbol>
    <symbol id="icon-gas" viewBox="0 0 32 32">
      <path stroke-linecap="round" stroke-linejoin="round" stroke-width="2.4" d="M8 25.333h5.333M24 25.345v-.012M2.667 8c0-4.413.92-5.333 5.333-5.333h16c4.413 0 5.333.92 5.333 5.333v16c0 4.413-.92 5.333-5.333 5.333H8c-4.413 0-5.333-.92-5.333-5.333V8z"/>
      <path stroke-linecap="round" stroke-linejoin="round" stroke-width="2.4" d="M16 18.667A5.333 5.333 0 1 0 16 8a5.333 5.333 0 0 0 0 10.667zM20.667 13.333h2M16 18v2m-4.667-6.667h-2M16 8.667v-2"/>
    </symbol>
    <symbol id="icon-water" viewBox="0 0 32 32">
      <path stroke-miterlimit="10" stroke-width="2" d="M25 20c0 5.523-3.477 9-9 9s-9-3.477-9-9c0-5.927 6.452-13.928 8.431-16.242a.763.763 0 0 1 .57-.263.744.744 0 0 1 .57.263c1.978 2.314 8.43 10.316 8.43 16.242z"/>
      <path stroke-linecap="round" stroke-linejoin="round" stroke-width="2" d="M21.5 20.5A4.499 4.499 0 0 1 17 25"/>
    </symbol>
    <symbol id="icon-Logo" viewBox="0 0 272 32">
      <path fill="#475467" d="M270.786 14.375h-7.216a1.98 1.98 0 0 0-.47-1.151 2.637 2.637 0 0 0-1.064-.739c-.428-.18-.9-.27-1.422-.27-.672 0-1.25.123-1.732.369-.484.246-.72.597-.71 1.051-.01.322.128.62.412.895.292.275.856.488 1.69.639l4.432.795c2.234.407 3.896 1.094 4.986 2.06 1.098.956 1.652 2.24 1.662 3.849-.01 1.553-.474 2.903-1.392 4.048-.91 1.136-2.156 2.017-3.736 2.642-1.572.616-3.368.923-5.384.923-3.334 0-5.942-.682-7.826-2.046-1.876-1.364-2.922-3.163-3.14-5.398h7.784a2.24 2.24 0 0 0 1.022 1.605c.588.369 1.326.554 2.216.554.72 0 1.312-.123 1.776-.369.474-.246.716-.597.724-1.051-.008-.417-.218-.748-.624-.994-.398-.246-1.024-.445-1.876-.597l-3.862-.682c-2.226-.388-3.892-1.127-5-2.216s-1.658-2.491-1.648-4.205c-.01-1.515.388-2.798 1.192-3.849.814-1.061 1.974-1.866 3.48-2.415 1.516-.559 3.31-.838 5.384-.838 3.154 0 5.64.653 7.458 1.96 1.828 1.307 2.788 3.116 2.884 5.426zM232.83 23.92l.056-9.318h1.024l5.284-7.33H248l-8.864 11.42h-2.216l-4.09 5.227zm-7.046 5.171V0h7.842v29.091h-7.842zm13.466 0-5-8.636 5.114-5.568 8.864 14.205h-8.978zM211.238 29.489c-2.368 0-4.394-.469-6.08-1.406-1.686-.947-2.978-2.263-3.878-3.949-.9-1.695-1.349-3.66-1.349-5.895s.449-4.195 1.349-5.881a9.562 9.562 0 0 1 3.878-3.949c1.686-.947 3.712-1.42 6.08-1.42 2.14 0 3.992.388 5.554 1.165 1.572.767 2.788 1.856 3.65 3.267.862 1.402 1.298 3.049 1.308 4.943h-7.274c-.104-1.146-.436-2.017-.994-2.614-.55-.606-1.26-.909-2.13-.909-.682 0-1.28.199-1.79.597-.512.388-.91.98-1.194 1.776-.284.786-.426 1.776-.426 2.969s.142 2.188.426 2.983c.284.786.682 1.378 1.194 1.776.51.388 1.108.582 1.79.582.576 0 1.088-.133 1.534-.398.444-.275.804-.672 1.078-1.193.286-.53.456-1.174.512-1.932h7.274c-.03 1.922-.47 3.599-1.322 5.028-.852 1.421-2.06 2.519-3.622 3.296-1.554.776-3.41 1.165-5.568 1.165zM188.097 19.545V7.272h7.841V29.09h-7.443v-4.148h-.227c-.473 1.392-1.302 2.481-2.486 3.267-1.184.777-2.59 1.165-4.219 1.165-1.525 0-2.86-.35-4.006-1.051-1.136-.701-2.022-1.667-2.656-2.898-.625-1.231-.942-2.642-.952-4.233V7.271h7.841v12.273c.009 1.08.284 1.927.824 2.543.549.616 1.316.923 2.301.923.653 0 1.217-.137 1.69-.412a2.814 2.814 0 0 0 1.108-1.193c.265-.521.393-1.141.383-1.861zM155.806 29.091V7.273h7.614v4.148h.227c.398-1.534 1.028-2.656 1.889-3.366.871-.71 1.889-1.065 3.054-1.065.341 0 .677.028 1.009.085.341.047.668.118.98.213v6.69c-.388-.133-.867-.232-1.435-.298s-1.056-.099-1.463-.099c-.767 0-1.458.175-2.074.526a3.71 3.71 0 0 0-1.435 1.449c-.35.616-.526 1.34-.526 2.173v11.364h-7.841zM128.902 6.364V0h25.284v6.364h-8.75v22.727h-7.784V6.364h-8.75z" style="fill:var(--color1, #475467)"/>
      <path fill="#101828" d="M125.016 0v29.091h-7.841V0h7.841zM102.493 29.489c-2.33 0-4.337-.445-6.023-1.335a9.355 9.355 0 0 1-3.878-3.864c-.9-1.686-1.349-3.703-1.349-6.051 0-2.254.454-4.223 1.364-5.909s2.192-2.997 3.849-3.935 3.613-1.406 5.866-1.406c1.648 0 3.139.256 4.475.767s2.476 1.255 3.423 2.23c.947.966 1.676 2.14 2.188 3.523s.767 2.94.767 4.673V20H93.686v-4.318h12.273c-.009-.625-.17-1.174-.483-1.648a3.074 3.074 0 0 0-1.236-1.122c-.511-.275-1.094-.412-1.747-.412-.635 0-1.217.137-1.747.412-.53.265-.956.634-1.278 1.108-.313.473-.478 1.027-.497 1.662v4.659c0 .701.147 1.326.44 1.875s.715.98 1.264 1.293c.549.313 1.212.469 1.989.469.54 0 1.032-.076 1.477-.227a3.315 3.315 0 0 0 1.165-.653c.322-.293.559-.644.71-1.051h7.159c-.246 1.515-.829 2.831-1.747 3.949-.919 1.108-2.135 1.97-3.651 2.585-1.506.606-3.267.909-5.284.909zM89.673 7.273l-7.33 21.818h-9.091L65.923 7.273h8.239l3.523 14.432h.227l3.523-14.432h8.239zM50.112 29.432c-1.392 0-2.623-.227-3.693-.682-1.061-.464-1.894-1.165-2.5-2.102s-.909-2.131-.909-3.58c0-1.193.204-2.211.611-3.054.407-.852.975-1.548 1.705-2.088s1.577-.952 2.543-1.236a15.398 15.398 0 0 1 3.153-.554c1.222-.095 2.202-.208 2.94-.341.748-.142 1.288-.336 1.619-.582.331-.256.497-.592.497-1.009v-.057c0-.568-.218-1.004-.653-1.307s-.994-.455-1.676-.455c-.748 0-1.359.166-1.832.497-.464.322-.743.819-.838 1.491h-7.216a7.44 7.44 0 0 1 1.264-3.665c.758-1.127 1.861-2.027 3.31-2.699 1.449-.682 3.257-1.023 5.426-1.023 1.563 0 2.964.185 4.205.554 1.241.36 2.296.866 3.168 1.52.871.644 1.534 1.402 1.989 2.273a5.84 5.84 0 0 1 .696 2.813v14.943h-7.329v-3.068h-.171c-.436.814-.966 1.473-1.591 1.974a5.85 5.85 0 0 1-2.117 1.094c-.786.227-1.652.341-2.599.341zm2.557-4.943c.597 0 1.155-.123 1.676-.369.53-.246.961-.601 1.293-1.065s.497-1.027.497-1.69v-1.818a8.731 8.731 0 0 1-.668.241 13.888 13.888 0 0 1-1.563.398c-.284.057-.582.109-.895.156-.606.095-1.103.251-1.492.469-.379.208-.663.469-.852.781-.18.303-.27.644-.27 1.023 0 .606.213 1.07.639 1.392s.971.483 1.633.483zM26.904 29.091V7.273h7.614v4.148h.227c.398-1.534 1.027-2.656 1.889-3.366.871-.71 1.889-1.065 3.054-1.065.341 0 .677.028 1.008.085.341.047.668.118.98.213v6.69c-.388-.133-.867-.232-1.435-.298s-1.056-.099-1.463-.099c-.767 0-1.458.175-2.074.526a3.71 3.71 0 0 0-1.435 1.449c-.35.616-.525 1.34-.525 2.173v11.364h-7.841zM0 6.364V0h25.284v6.364h-8.75v22.727H8.75V6.364H0z" style="fill:var(--color2, #101828)"/>
    </symbol>
    <symbol id="icon-microwave" viewBox="0 0 32 32">
      <path stroke-linecap="round" stroke-linejoin="round" stroke-width="2" d="M26.667 5.333H5.334A2.667 2.667 0 0 0 2.667 8v14.667a2.667 2.667 0 0 0 2.667 2.667h21.333a2.667 2.667 0 0 0 2.667-2.667V8a2.667 2.667 0 0 0-2.667-2.667z"/>
      <path stroke-linecap="round" stroke-linejoin="round" stroke-width="2" d="M17.333 10.667h-8C8.597 10.667 8 11.264 8 12v6.667C8 19.403 8.597 20 9.333 20h8c.736 0 1.333-.597 1.333-1.333V12c0-.736-.597-1.333-1.333-1.333zM24 10.667V20M8 25.333V28m16-2.667V28"/>
    </symbol>
    <symbol id="icon-Map" viewBox="0 0 32 32">
      <path d="M31.634.226A.991.991 0 0 1 32 1v28a.999.999 0 0 1-.804.98l-10 2a.995.995 0 0 1-.392 0L11 30.02l-9.804 1.96a.995.995 0 0 1-1.1-.552A1.003 1.003 0 0 1 0 31V3a.999.999 0 0 1 .804-.98l10-2a.995.995 0 0 1 .392 0L21 1.98 30.804.02a.996.996 0 0 1 .83.206zM20 3.82l-8-1.6v25.96l8 1.6V3.82zm2 25.96 8-1.6V2.22l-8 1.6v25.96zm-12-1.6V2.22l-8 1.6v25.96l8-1.6z"/>
    </symbol>
    <symbol id="icon-bathroom" viewBox="0 0 32 32">
      <path d="M8 29.5a1.495 1.495 0 0 1-.926 1.385 1.504 1.504 0 0 1-1.635-.325 1.497 1.497 0 0 1-.326-1.635 1.5 1.5 0 0 1 2.885.574zm2.5-5.5a1.495 1.495 0 0 0-1.385.926 1.496 1.496 0 0 0 .326 1.635c.21.21.477.353.768.41s.592.028.867-.085a1.496 1.496 0 0 0 .926-1.385 1.503 1.503 0 0 0-1.5-1.5zm-8 0a1.495 1.495 0 0 0-1.385.926 1.496 1.496 0 0 0 .326 1.635c.21.21.477.353.768.41s.593.028.867-.085a1.5 1.5 0 0 0-.574-2.885zm4-4a1.495 1.495 0 0 0-1.385.926 1.496 1.496 0 0 0 .326 1.635c.21.21.477.353.768.41s.593.028.867-.085a1.5 1.5 0 0 0-.574-2.885zM32 5a.997.997 0 0 1-1 1h-3.586l-3.481 3.482-2.707 15.849a1.995 1.995 0 0 1-1.363 1.573 2.002 2.002 0 0 1-2.023-.49L5.59 14.164a2.002 2.002 0 0 1 1.086-3.389l15.842-2.709 3.775-3.775a1.007 1.007 0 0 1 .708-.293h4a.997.997 0 0 1 1 1zm-10.224 5.224L7 12.75 19.25 25l2.526-14.776z"/>
    </symbol>
    <symbol id="icon-Property-1Default" viewBox="0 0 32 32">
      <path fill="#f2f4f7" d="M15.116 1.676a1 1 0 0 1 1.769 0l3.777 7.158c.145.274.408.466.714.519l7.975 1.38a1 1 0 0 1 .547 1.682l-5.641 5.804a1 1 0 0 0-.273.839l1.152 8.01a1 1 0 0 1-1.431 1.04l-7.263-3.571a.998.998 0 0 0-.882 0l-7.262 3.571a1 1 0 0 1-1.431-1.04l1.152-8.01a1 1 0 0 0-.273-.839l-5.64-5.804a1 1 0 0 1 .547-1.682l7.974-1.38a.998.998 0 0 0 .714-.519l3.776-7.158z" style="fill:var(--color3, #f2f4f7)"/>
    </symbol>
    <symbol id="icon-star-pressed" viewBox="0 0 32 32">
      <path fill="#ffc531" d="M15.116 1.676a1 1 0 0 1 1.769 0l3.777 7.158c.145.274.408.466.714.519l7.975 1.38a1 1 0 0 1 .547 1.682l-5.641 5.804a1 1 0 0 0-.273.839l1.152 8.01a1 1 0 0 1-1.431 1.04l-7.263-3.571a.998.998 0 0 0-.882 0l-7.262 3.571a1 1 0 0 1-1.431-1.04l1.152-8.01a1 1 0 0 0-.273-.839l-5.64-5.804a1 1 0 0 1 .547-1.682l7.974-1.38a.998.998 0 0 0 .714-.519l3.776-7.158z" style="fill:var(--color4, #ffc531)"/>
    </symbol>
    <symbol id="icon-refrigerator" viewBox="0 0 32 32">
      <path d="M23.667 9.333a.997.997 0 0 0-1-1 .997.997 0 0 0-1 1V12a.997.997 0 0 0 1 1 .997.997 0 0 0 1-1V9.333zm0 9.334a.997.997 0 0 0-1-1 .997.997 0 0 0-1 1v2.667a.997.997 0 0 0 1 1 .997.997 0 0 0 1-1v-2.667z"/>
      <path d="M16.075 1.667h-.149c-2.451 0-4.392 0-5.911.204-1.563.211-2.828.653-3.827 1.651-.997.999-1.44 2.264-1.651 3.827-.204 1.52-.204 3.46-.204 5.911v4.149c0 2.451 0 4.392.204 5.911.211 1.563.653 2.828 1.651 3.827.613.612 1.325 1.015 2.145 1.284v.904a1 1 0 0 0 1 1h1.333a.997.997 0 0 0 1-1v-.395c1.209.061 2.62.061 4.259.061h.149c1.64 0 3.049 0 4.259-.061v.395a1 1 0 0 0 1 1h1.333a.997.997 0 0 0 1-1v-.904c.82-.269 1.533-.672 2.145-1.284.997-.999 1.44-2.264 1.651-3.827.204-1.52.204-3.46.204-5.911v-4.148c0-2.451 0-4.392-.204-5.911-.211-1.563-.653-2.828-1.651-3.827-.999-.997-2.264-1.44-3.827-1.651-1.52-.204-3.46-.204-5.911-.204zM7.603 4.936c.564-.564 1.337-.903 2.679-1.083 1.371-.184 3.176-.187 5.719-.187s4.349.003 5.72.187c1.34.18 2.113.519 2.677 1.083s.903 1.337 1.083 2.679c.184 1.371.187 3.176.187 5.719v1H6.335v-1c0-2.543.003-4.348.187-5.72.18-1.34.519-2.113 1.083-2.677zm-1.27 11.397h19.333v1c0 2.543-.003 4.349-.187 5.72-.18 1.34-.519 2.113-1.083 2.677s-1.337.903-2.679 1.083c-1.371.184-3.176.187-5.719.187s-4.348-.003-5.72-.187c-1.34-.18-2.113-.519-2.677-1.083s-.903-1.337-1.083-2.679c-.184-1.369-.187-3.176-.187-5.719v-1z"/>
    </symbol>
    <symbol id="icon-TV" viewBox="0 0 32 32">
      <path  d="M0 8s0-4 4-4h24s4 0 4 4v12s0 4-4 4h-8c0 1.333.167 2.333.5 3H22a.997.997 0 0 1 1 1 .997.997 0 0 1-1 1H10a.997.997 0 0 1-1-1 .997.997 0 0 1 1-1h1.5c.333-.667.5-1.667.5-3H4s-4 0-4-4V8zm2.796-1.71c-.22.153-.395.361-.508.604A3.013 3.013 0 0 0 2 8.02V20c0 .65.156 1.004.29 1.204.14.208.341.377.604.508.338.162.703.259 1.076.286l.05.002H28c.65 0 1.004-.156 1.204-.29.22-.153.395-.361.508-.604.162-.338.259-.703.286-1.076l.002-.05V8c0-.65-.156-1.004-.29-1.204a1.511 1.511 0 0 0-.604-.508A3.018 3.018 0 0 0 27.98 6H4c-.65 0-1.004.156-1.204.29z" fill="currentColor"/>
    </symbol>
    <symbol id="icon-radio" viewBox="0 0 32 32">
      <path d="M14 5a.997.997 0 0 1 1-1h14a.997.997 0 0 1 1 1v2a.997.997 0 0 1-1 1H15a.997.997 0 0 1-1-1V5zM0 24a5.996 5.996 0 0 1 6-6 6.002 6.002 0 0 1 4.243 10.243A6 6 0 0 1 0 24zm14-3a.997.997 0 0 1 1-1h14a.997.997 0 0 1 1 1v2a.997.997 0 0 1-1 1H15a.997.997 0 0 1-1-1v-2zm0-10a.997.997 0 0 1 1-1h10a.997.997 0 0 1 1 1 .997.997 0 0 1-1 1H15a.997.997 0 0 1-1-1zm0 16a.997.997 0 0 1 1-1h10a.997.997 0 0 1 1 1 .997.997 0 0 1-1 1H15a.997.997 0 0 1-1-1zM6 2a5.99 5.99 0 0 0-4.243 1.758A6.01 6.01 0 0 0-.001 8.001a5.99 5.99 0 0 0 1.758 4.243A6.01 6.01 0 0 0 6 14.002a5.996 5.996 0 0 0 6-6 5.996 5.996 0 0 0-6-6zm0 9a3.004 3.004 0 0 1-3-3 3.004 3.004 0 0 1 3-3 3.004 3.004 0 0 1 3 3 3.004 3.004 0 0 1-3 3z"/>
    </symbol>
    <symbol id="icon-AC" viewBox="0 0 32 32">
      <path d="M25 4a5 5 0 0 0-5 5 .997.997 0 0 1-1 1 .997.997 0 0 1-1-1 6.994 6.994 0 0 1 4.322-6.467 6.998 6.998 0 0 1 9.544 5.102 7.006 7.006 0 0 1-2.976 7.186 6.994 6.994 0 0 1-3.889 1.18h-24a.997.997 0 0 1-1-1 .997.997 0 0 1 1-1h24a5 5 0 0 0 0-10zM11 6a2 2 0 0 0-2 2 .997.997 0 0 1-1 1 .997.997 0 0 1-1-1 4.004 4.004 0 0 1 2.469-3.695A4 4 0 1 1 11 12H1a.997.997 0 0 1-1-1 .997.997 0 0 1 1-1h10a2 2 0 0 0 0-4zM0 19a.997.997 0 0 1 1-1h20.084a5.998 5.998 0 0 1 4.242 10.243 5.996 5.996 0 0 1-6.539 1.301 5.999 5.999 0 0 1-3.704-5.543.997.997 0 0 1 1-1 .997.997 0 0 1 1 1 4.004 4.004 0 0 0 2.469 3.695 4 4 0 1 0 1.531-7.695H.999a.997.997 0 0 1-1-1z"/>
    </symbol>
  </defs>
</svg>
